<svg id="Layer_1" data-name="Layer 1" xmlns="http://www.w3.org/2000/svg" xmlns:xlink="http://www.w3.org/1999/xlink" viewBox="0 0 918.19 929.99"><defs><style>.cls-1{fill:url(#linear-gradient);}.cls-2{fill:#96a4d1;}.cls-3{fill:#5475b5;}.cls-4{fill:#00539e;}.cls-5{fill:#01539e;}</style><linearGradient id="linear-gradient" x1="459.09" y1="24.94" x2="459.09" y2="891.44" gradientUnits="userSpaceOnUse"><stop offset="0" stop-color="#c3ceee"/><stop offset="0.91" stop-color="#8a9fdd"/><stop offset="0.99" stop-color="#859adb"/></linearGradient></defs><rect class="cls-1" width="918.19" height="929.99"/><path class="cls-2" d="M356.41,338c-18,7.41-35.09,16.78-52.24,25.94q-34.82,18.6-67.68,40.47c-26.2,17.37-51.82,35.56-75.81,55.93-8.11,6.89-16,14-24,21-.89.78-1.71,1.66-3,1.66H93.14c8.94-8.25,16.81-15.8,25-23,20.51-18,41.57-35.31,63.53-51.49A941.52,941.52,0,0,1,288,340.65a894.55,894.55,0,0,1,145.76-63.42A882.6,882.6,0,0,1,540.5,248.89c20.84-4.18,41.77-7.72,62.82-10.45,19.09-2.48,38.27-4.26,57.5-5.55q38.16-2.55,76.34-1.63a661.34,661.34,0,0,1,66.08,4.89c3.47.43,5.29,1.63,5,5.67-.4,5.8-.22,11.65,0,17.48.08,3-.93,4.21-4.05,3.88-8.09-.84-16.21-1.42-24.3-2.27a573.6,573.6,0,0,0-58.76-3c-21.14,0-42.3-.33-63.4,1.3-29,2.24-57.76,5.56-86.4,10.55A855.28,855.28,0,0,0,451.69,299.9c-1.11.36-2.17.84-3.25,1.26-2.72,2.72-6.41,3.46-9.82,4.64a787.66,787.66,0,0,0-75.09,30.14A24.18,24.18,0,0,1,356.41,338Z"/><path class="cls-3" d="M455.4,309.05c20.87-6.78,41.69-13.67,63-19.09a800.54,800.54,0,0,1,132.57-22.18,824.72,824.72,0,0,1,93.79-2.42c19.95.64,39.87,2.07,59.68,4.62,2.73.35,3.76,1.37,3.67,4.09-.11,3.65.1,7.31.17,11,1.29,2.84.43,5.88.74,8.81.37,3.46-2.51,3.42-4.88,3.15-9.09-1-18.17-2.19-27.3-2.89-15.75-1.19-31.48-2.68-47.3-2.75-14.28-.07-28.56-.31-42.85,0a669,669,0,0,0-131.14,15.86,638.51,638.51,0,0,0-109.94,34.67C387.86,366,334.73,397.76,286.76,438a450.12,450.12,0,0,0-44.63,42.82,9.83,9.83,0,0,1-7.88,3.49c-10.49-.06-21,0-31.48-.05-1.8,0-4.14.38-5-1.38-1.11-2.15,1.12-3.59,2.35-5,13.07-15.13,27.4-29.05,42-42.62a520.79,520.79,0,0,1,40.59-34,650.78,650.78,0,0,1,83.08-53.51,663.68,663.68,0,0,1,82.39-37.09C450.52,309.83,452.79,308.68,455.4,309.05Z"/><path class="cls-4" d="M808.26,312.06c-.09,3.32-.23,6.63-.25,9.95,0,6.46,0,6.57-7.06,5.78-23.47-2.66-47-4.05-70.63-4.65-14-.35-27.91-.73-41.85.39a34.26,34.26,0,0,1-11.25,1.86A555.53,555.53,0,0,0,537.6,348.22a411.85,411.85,0,0,0-66.89,26.3c-42.31,21.28-79.58,49.11-109.48,86.2a148.54,148.54,0,0,0-12.54,18c-2.26,3.87-5.19,5.69-9.72,5.62-10.16-.16-20.33.06-30.49-.1-5.79-.09-6.65-1.7-3.44-6.58A340.63,340.63,0,0,1,361.62,412a378.22,378.22,0,0,1,58.87-43.72c46.21-27.69,96.17-45.61,148.61-57.1a666.42,666.42,0,0,1,80.44-12.27c13.57-1.28,27.2-2,40.85-2.39,10.47-.33,20.94-1,31.43-.83,27.13.53,54.21,1.8,81.16,5.13C809.45,301.64,810.62,304.16,808.26,312.06Z"/><path class="cls-3" d="M546.74,526.17c-1.28,16.82-2.63,33.63-3.77,50.45-.21,3-1.08,4.15-4.22,3.84a71.8,71.8,0,0,0-9.62,0c-1.71.05-2.4-.34-2.62-2.28-1.75-15.57-3.68-31.12-5.52-46.68-1.36-11.43-2.54-22.89-4.06-34.3-.37-2.79.19-3.69,3-3.42a57,57,0,0,0,5.7,0c4.83,0,4.84,0,5.19,5q1.8,25.41,3.6,50.82c.05.79.25,1.56.51,3.12,1.81-19,3.62-37.19,5.2-55.4.24-2.72.89-3.84,3.72-3.57a42.47,42.47,0,0,0,7.48,0c2.56-.2,3.08.85,3.28,3.24,1.53,18.08,3.24,36.15,5.45,54.23.5-6.34,1-12.69,1.48-19,.83-11.38,1.75-22.75,2.34-34.13.19-3.58,1.45-4.89,4.92-4.29a18,18,0,0,0,2.85,0c6.32,0,6.31,0,5.58,6.17q-4.59,38.9-9.13,77.81c-.22,1.89-.6,2.74-2.67,2.66-3.8-.14-7.61-.14-11.41,0-1.87.07-2.34-.56-2.47-2.4-1.13-16.83-2.38-33.64-3.6-50.47-.66-1.68-.46-3.54-1-5.24-.17-.45-.6.33-.24,0A3.36,3.36,0,0,1,546.74,526.17Z"/><path class="cls-3" d="M379.66,575.33c-.36,5-.36,5.08-5.55,5-2.82,0-6.49.86-8.24-.56s-.57-5.34-.58-8.14c-.05-24.83,0-49.65-.11-74.48,0-2.95.94-3.68,3.61-3.47a44.54,44.54,0,0,0,7.12,0c2.7-.22,4.1.54,3.61,3.5a7.09,7.09,0,0,0,.14,1.76,2,2,0,0,1,0,2.85v24.84l.4.1c2.64-8.69,5.31-17.37,7.92-26.07,2.06-6.9,2-6.91,9-6.91,7.58,0,7.55,0,5.22,7.06-1.59,4.83-3.12,9.69-4.68,14.55-1.8,5.15-3.56,10.32-5.41,15.46-.54,1.51.1,2.8.48,4.14,3.95,14.07,7.85,28.16,12,42.17.86,2.93.13,3.44-2.6,3.25-3.78-.25-8.65,1.2-11.08-.65s-2.45-6.86-3.42-10.51c-1.57-5.85-3.05-11.73-4.58-17.59,0,0-.15-.08-.43-.21C378,559,379.73,567.29,379.66,575.33Z"/><path class="cls-3" d="M290.43,559.19c0-7.9,0-7.9,7.46-7.9a24.62,24.62,0,0,0,2.85,0c2.17-.26,2.91.59,2.87,2.79a45.43,45.43,0,0,0,.52,8.16c.4,2.5,1.8,4.42,4.68,4.53s3.88-1.83,4.51-4.16c1.61-5.94.22-11-4.42-15.14-3.1-2.76-6.37-5.36-9.26-8.33-9.2-9.44-11.41-27.72-4.91-39.21a16.2,16.2,0,0,1,28-.54c3.52,5.66,4.32,11.95,4.32,18.46,0,1.61-.68,2.09-2.14,2-.83-.07-1.67,0-2.5,0-2.61,0-5.71.84-7.7-.27s-.6-4.57-1.27-6.94c-.75-2.65-1.42-5.3-4.82-5.12-3.22.16-3.75,2.76-4.07,5.36a11.09,11.09,0,0,0,3.64,10.28c3.54,3.17,7.12,6.28,10.63,9.48a23.28,23.28,0,0,1,7.51,14.19c1.12,7.7,1.36,15.39-1,22.92-2.68,8.66-8.43,12.9-17,12.8-8.32-.1-14.24-4.83-16.76-13.33A31.17,31.17,0,0,1,290.43,559.19Z"/><path class="cls-3" d="M443.89,509.69c-1.17-4.45-2.21-8.95-3.56-13.35-.68-2.23,0-2.69,2.05-2.59,3.78.19,8.47-1.13,11.1.65s2.38,6.88,3.34,10.53a145.74,145.74,0,0,0,4.69,15.81q2.6-9.94,5.19-19.89c1.82-7.07,1.81-7.07,9.08-7.05,1.66,0,3.33.06,5,0,2-.1,1.71,1.08,1.47,2.31q-6.93,23.55-13.85,47.09a13.06,13.06,0,0,0-.22,3.55c0,10.22-.07,20.44,0,30.66,0,2.22-.45,3.24-2.91,3.05a55.46,55.46,0,0,0-8.55,0c-2.52.2-2.91-.87-2.88-3.06.1-8.56-.07-17.12.08-25.67a45.57,45.57,0,0,0-2-14.71C449.08,528,446.55,518.8,443.89,509.69Z"/><path class="cls-3" d="M730.46,576.57a7.36,7.36,0,0,1-.44-3.15q-.57-12.28-1.09-24.57c-.2-4.81-1.9-8.77-6.82-11.41a16.13,16.13,0,0,0,6.59-10.76,50,50,0,0,0-.33-19.83c-2-9-6.9-12.86-16.09-13-5.83-.11-11.66.1-17.47-.1-2.74-.1-3.61.6-3.59,3.5.12,24,0,48,.1,72,0,3.62-1.65,8.58.75,10.5s7,.44,10.69.68c2.24.15,2.82-.64,2.79-2.81q-.15-13.73,0-27.45c0-1.32-1.11-3.48,1.1-3.89,2.42-.45,5.16-.56,6.63,2.15a13.37,13.37,0,0,1,1.28,4c.75,4.24.54,8.53.62,12.8s.26,8.31.37,12.46c.06,2.07,1,2.85,3.15,2.71a69.71,69.71,0,0,1,8.91,0C730.84,580.64,732.49,580.15,730.46,576.57Zm-16-49.72a6.23,6.23,0,0,1-8.11,3.61c-1.11-.46-.81-1.31-.82-2.06,0-2.84,0-5.69,0-8.53s.1-5.45,0-8.17c-.09-2,.8-2.37,2.54-2.35,4.36.06,6.44,1.59,7,5.88A25.94,25.94,0,0,1,714.47,526.85Z"/><path class="cls-3" d="M806.43,518.85a63.36,63.36,0,0,0-.72-9.93c-1.39-9.05-6.79-14.28-15.93-14.84-5.92-.36-11.87-.09-17.8-.36-2.68-.12-3.44.67-3.42,3.36.14,13.3.07,26.61.07,39.91s.06,26.85-.06,40.27c0,2.47.61,3.27,3.15,3.18,6-.19,12.12,0,18.17-.12,7.68-.16,13-4.33,15.1-11.73a38.55,38.55,0,0,0,1.44-10.9Q806.37,538.28,806.43,518.85ZM792,557.78c0,4.47-2.38,6.62-6.09,7-2.19.19-3.17-.23-3.12-2.79.16-8.31.06-16.62.06-24.94h0c0-7.72-.07-15.44.06-23.16,0-1.43-1.13-3.83,1.15-4.2s5-.13,6.64,2.4a8.35,8.35,0,0,1,1.28,4.4C792.09,530.22,792.19,544,792,557.78Z"/><path class="cls-3" d="M654.61,576.92c-1.11-5.09-1.68-10.3-2.46-15.46-3.27-21.58-6.58-43.15-9.73-64.74-.37-2.49-1.31-3.09-3.62-3-3.79.17-7.6.17-11.4,0-2.16-.08-2.89.75-3.12,2.79-.47,4.13-1.18,8.22-1.8,12.33q-5.28,34.64-10.61,69.28c-.28,1.79,0,2.33,1.84,2.28,3.2-.09,6.42-.14,9.62,0,2,.1,2.73-.64,2.86-2.57.26-3.78.65-7.56,1.07-11.34.12-1.07-.29-2.74,1.4-2.83,3.08-.17,6.39-.71,9.18.2,2.13.71,1.13,4,1.55,6.13.2,1.05.36,2.11.48,3.17.83,7.2.82,7.2,7.83,7.2a32,32,0,0,1,3.92,0C654.5,580.78,655.27,579.94,654.61,576.92Zm-20.2-28.62c-5.5,0-5.41.1-4.8-5.25,1.21-10.58,2.31-21.17,3.46-31.76h.42c1.2,11.43,2.34,22.86,3.64,34.27C637.4,548,636.48,548.29,634.41,548.3Z"/><path class="cls-5" d="M150,613.4c-.7-1.23-.56-3-.63-4.53q-.82-17.65-1.58-35.33c-.28-6.93-2.72-12.61-9.8-16.42a23.22,23.22,0,0,0,9.48-15.47,71.88,71.88,0,0,0-.47-28.52c-2.93-12.9-9.93-18.5-23.15-18.73-8.38-.15-16.76.14-25.13-.15-3.94-.13-5.19.87-5.16,5,.18,34.53,0,69.06.14,103.58,0,5.21-2.37,12.35,1.08,15.11,3.27,2.62,10.12.63,15.37,1,3.22.21,4.06-.93,4-4q-.23-19.74,0-39.49c0-1.89-1.61-5,1.58-5.59,3.48-.65,7.41-.8,9.52,3.08a19.16,19.16,0,0,1,1.85,5.81c1.08,6.09.78,12.26.9,18.41.12,6,.36,12,.53,17.92.08,3,1.45,4.1,4.53,3.9A97.78,97.78,0,0,1,146,619C150.56,619.26,152.93,618.55,150,613.4Zm-23-71.51c-1.52,4.66-7.21,7-11.66,5.2-1.6-.66-1.16-1.89-1.18-3-.06-4.08,0-8.18,0-12.26,0-3.92.14-7.85-.06-11.76-.13-2.83,1.15-3.41,3.65-3.38,6.28.09,9.27,2.29,10.1,8.46C128.59,530.76,128.8,536.42,127,541.89Z"/><path class="cls-4" d="M245.8,600c.18-2.44-.54-3.56-3-3.56-1.16,0-2.31,0-3.45.07-11.45,0-21.14-.14-29.39-.3a2.27,2.27,0,0,1-1.34-2.16c0-.51,0-1,0-1.53.07-1.72.09-3.44.08-5.17h0c0-3.95,0-7.9.08-11.85,0-1.81-1.46-4.74,1.21-5.5l8.22-.1,15.3-.11h.78a27.72,27.72,0,0,0,5.09,0h.17v0a3.15,3.15,0,0,0,2.3-1.71c1.67-3.32.39-8.48.41-12.83,0-1.39,0-2.78.06-4.16.17-2.43-.54-3.56-3-3.56-1.26,0-2.52,0-3.76.09-8.68-.09-17.25-.21-25.61-.35l-.08,0c-1.61-.66-1.17-1.9-1.18-3-.06-4.09,0-8.18,0-12.27,0-3.92.14-7.84-.06-11.75-.08-1.76.39-2.64,1.35-3,8.14-.16,17.7-.25,28.93-.29,2.67.11,5.3.39,6.41-1.83,1.67-3.35.38-8.56.4-12.94,0-1.4,0-2.8.06-4.19.18-2.46-.54-3.6-3-3.6-1.68,0-3.35.06-5,.15H211.31c-6,0-12,.11-18-.1-3.94-.14-5.19.87-5.17,5,.16,29.33.09,58.66.13,88h0c0,6,0,12-.06,17.92-.41,4.63-1.64,9.94.87,12.46a2.61,2.61,0,0,0,1,.76c3.47,1.94,9.8.21,14.73.54a5.6,5.6,0,0,0,2.4-.26l2.87,0h28.8c2.72.11,5.41.43,6.54-1.81,1.67-3.32.38-8.47.4-12.83C245.75,602.72,245.7,601.33,245.8,600Z"/></svg>