<svg id="Layer_1" data-name="Layer 1" xmlns="http://www.w3.org/2000/svg" viewBox="0 0 716.54 388.37"><defs><style>.cls-1{fill:#94a3d0;}.cls-2{fill:#5575b4;}.cls-3{fill:#00539f;}.cls-4{fill:#5575b5;}.cls-5{fill:#00549e;}.cls-6{fill:#00539e;}</style></defs><path class="cls-1" d="M1.36,251.72H42.93S315.91-17,716.54,32.58V6S331.2-60.87,1.36,251.72Z"/><path class="cls-2" d="M105.2,251.72h41.47S338.16,16.4,716.44,64.83V39.44S346.2-20.47,105.2,251.72Z"/><path class="cls-3" d="M211.29,251.72h41.57S350.81,56.89,716.54,97.09V71.8S363.46,16.5,211.29,251.72Z"/><path class="cls-4" d="M210.11,319.75v5.67c0,5.38.84,10,6.37,9.86,3.29,0,9.16-12.66-3.78-22a30.54,30.54,0,0,1-15.17-28.6c0-16.23,7-24.55,17.83-24.55,12.31,0,18.6,11.75,18,28h-12.8c0-5,0-12.1-4.61-12.44-2.87,0-4.34,1.81-4.83,4.82-2,11.61,10.42,14,17.35,23.71,9.23,12.79,8,47.13-12.94,46.5-13.57-.42-18.46-10.35-18.46-21.82v-9.16Z"/><path class="cls-4" d="M271.79,348.63V262.27h14v34.54l10.42-34.54h14.54L298.3,300.38l14,48.18H297l-7.83-30.07L286,327.23v21H272Z"/><path class="cls-4" d="M367.74,290.52l7.34-28h14l-14.61,50.07v36h-14V312.34l-14-50.07h14Z"/><path class="cls-4" d="M466.34,322.76l4.54-60.63h13.36l-10,86.5H458.3l-4.48-60.84-4.55,60.84H433.4l-10.14-86.36h14l4.12,60.49,5.81-60.63h14Z"/><path class="cls-4" d="M518.08,348.63l13.22-86.36h17.13l13.15,86.36h-14.4l-2-16.78H534l-1.68,16.78Zm21.68-70.77-4.19,38.74h8.25Z"/><path class="cls-4" d="M612,348.63H598V262.27h21c11.54,0,17.42,6.64,17.42,23.84,0,9.17-1.54,15.81-7.56,19.72h0a11.34,11.34,0,0,1,7,11.19c.42,7,.56,21.75,1.32,27.28a8.37,8.37,0,0,0,1.33,2.93v1.19H622.63a23.17,23.17,0,0,1-.77-4.89V323.46c0-5.32-1.54-8.74-4.82-9.09h-4.62v34.26ZM612,299h5.11c4,0,5.1-5.38,5.1-10.7,0-10.21-3-10.7-9.93-10.42Z"/><path class="cls-4" d="M675.15,348.63V262.27c18.32-.35,26.43-.35,31.4,4.05a28,28,0,0,1,6.36,21v38.39c0,9.1-2,23.22-18.6,22.66Zm14-15.59c9.51.91,9.58-4.55,9.37-16.09V289c0-10.14-2.44-10.7-9.37-10.91Z"/><path class="cls-5" d="M20.4,388.37H0v-126H30.61c16.83,0,25.4,9.7,25.4,34.79,0,13.37-2.24,23.06-11,28.78h0A16.53,16.53,0,0,1,55.2,342.26c.61,10.2.81,31.73,1.93,39.79a12,12,0,0,0,1.94,4.28v1.74H35.91a33.82,33.82,0,0,1-1.12-7.14V351.65c0-7.76-2.24-12.76-7-13.27H21v50Zm0-72.43h7.45c5.92,0,7.45-7.86,7.45-15.61,0-14.9-4.39-15.61-14.49-15.2Z"/><path class="cls-6" d="M152,367.43c-1.11-2.22-3.73-1.95-6.41-1.83-11.23,0-20.79-.14-28.93-.29-1-.42-1.43-1.3-1.34-3.05.19-3.91,0-7.84,0-11.76,0-4.09,0-8.18,0-12.27,0-1.07-.42-2.3,1.18-3l.08,0c8.37-.15,16.94-.26,25.61-.35,1.25.05,2.5.08,3.76.08,2.42,0,3.14-1.12,3-3.56-.1-1.38-.05-2.77-.06-4.15q0-.93.06-1.89c0-.63-.06-1.26-.06-1.88,0-1.38,0-2.77.06-4.15.18-2.44-.54-3.56-3-3.56-1.26,0-2.51,0-3.76.08-8.67-.09-17.24-.2-25.61-.35l-.08,0c-1.6-.66-1.16-1.89-1.18-3-.06-4.09,0-8.18,0-12.27,0-3.92.14-7.85,0-11.76-.09-1.75.38-2.63,1.34-3.05,8.14-.15,17.7-.25,28.93-.29,2.68.12,5.3.39,6.41-1.83,1.67-3.35.39-8.55.4-12.94,0-1.4,0-2.8.06-4.19.18-2.46-.54-3.59-3-3.59q-2.52,0-5,.15H118c-6,0-12,.1-18-.11-3.94-.13-5.19.87-5.16,5,.1,19.23.1,38.46.11,57.69s0,38.47-.11,57.7c0,4.17,1.22,5.17,5.16,5,6-.2,12-.11,18-.1h26.51q2.49.15,5,.15c2.42,0,3.14-1.13,3-3.59-.1-1.39-.05-2.79-.06-4.19C152.37,376,153.65,370.78,152,367.43Z"/></svg>